<?xml version="1.0" standalone="no"?>
<!DOCTYPE svg PUBLIC "-//W3C//DTD SVG 1.1//EN"
  "http://www.w3.org/Graphics/SVG/1.1/DTD/svg11.dtd">
<svg width="283.46px" height="212.59px" version="1.1"
    xmlns="http://www.w3.org/2000/svg"
    xmlns:xlink="http://www.w3.org/1999/xlink">
<desc>Veusz output document</desc>
<defs>
<clipPath id="c0">
<path d="m0,0l283.46,0l0,212.59l-283.46,0l0,-212.59"/>
</clipPath>
<clipPath id="c1">
<path d="m159.7,17.5l35.43,0l0,16.8l-35.43,0l0,-16.8"/>
</clipPath>
<clipPath id="c2">
<path d="m159.7,34.3l35.43,0l0,16.8l-35.43,0l0,-16.8"/>
</clipPath>
<clipPath id="c3">
<path d="m159.7,51.1l35.43,0l0,16.8l-35.43,0l0,-16.8"/>
</clipPath>
<clipPath id="c4">
<path d="m39.57,7.08l236.79,0l0,164.97l-236.79,0l0,-164.97"/>
</clipPath>
</defs>
<g stroke-linejoin="bevel" stroke-linecap="square" stroke="#000000" fill-rule="evenodd">
<g clip-path="url(#c0)">
<g fill="#ffffff" stroke-width="0.62">
<path d="m39.57,7.08l236.79,0l0,164.97l-236.79,0l0,-164.97"/>
</g>
<g fill="#ffffff" stroke="none" stroke-width="1">
<path d="m159.7,17.5l87.13,0l0,50.4l-87.13,0l0,-50.4"/>
</g>
</g>
<g clip-path="url(#c1)">
<g fill="none" stroke="#008000" stroke-width="0.62">
<path d="M177.42,25.9l0,0"/>
</g>
<g fill="none" stroke-width="1.25">
<path d="M159.7,25.9l35.43,0"/>
</g>
</g>
<g clip-path="url(#c0)">
<g fill="none" stroke-width="1">
<path d="m212.94,31.1l0,-10.86l1.31,0l0,10.86l-1.31,0m3.29,-9.6l0,-1.25l1.31,0l0,1.25l-1.31,0m0,9.6l0,-7.92l1.31,0l0,7.92l-1.31,0m5.84,0.14c-1,0,-1.74,-0.33,-2.21,-1.01c-0.46,-0.67,-0.7,-1.69,-0.7,-3.05c0,-1.37,0.24,-2.41,0.72,-3.1c0.48,-0.69,1.21,-1.04,2.19,-1.04c0.32,0,0.61,0.02,0.86,0.08c0.25,0.05,0.47,0.14,0.67,0.26c0.19,0.11,0.37,0.25,0.51,0.42c0.14,0.17,0.28,0.37,0.4,0.6l0.01,0c0,-0.12,0,-0.25,0.01,-0.4c0,-0.14,0.01,-0.28,0.02,-0.42c0,-0.13,0.01,-0.24,0.02,-0.33c0,-0.09,0.01,-0.15,0.02,-0.16l1.26,0c0,0.08,-0.02,0.3,-0.03,0.65c-0.01,0.35,-0.01,0.85,-0.01,1.5l0,8.97l-1.31,0l0,-3.21c0,-0.12,0,-0.25,0,-0.39c0,-0.13,0,-0.26,0.01,-0.38c0,-0.13,0,-0.27,0.01,-0.41l-0.01,0c-0.12,0.24,-0.26,0.46,-0.42,0.64c-0.15,0.18,-0.33,0.33,-0.53,0.45c-0.2,0.11,-0.42,0.2,-0.67,0.26c-0.25,0.05,-0.53,0.08,-0.85,0.08m2.46,-4.2c0,-0.57,-0.05,-1.05,-0.15,-1.45c-0.1,-0.39,-0.24,-0.7,-0.42,-0.93c-0.18,-0.23,-0.4,-0.4,-0.66,-0.5c-0.26,-0.1,-0.55,-0.15,-0.87,-0.15c-0.33,0,-0.62,0.06,-0.86,0.18c-0.23,0.12,-0.43,0.31,-0.58,0.57c-0.14,0.25,-0.25,0.58,-0.32,0.97c-0.07,0.39,-0.1,0.85,-0.1,1.39c0,0.52,0.03,0.98,0.09,1.37c0.06,0.39,0.17,0.71,0.32,0.96c0.14,0.25,0.34,0.44,0.57,0.56c0.23,0.12,0.52,0.18,0.86,0.18c0.29,0,0.57,-0.04,0.82,-0.13c0.25,-0.09,0.48,-0.25,0.67,-0.49c0.19,-0.23,0.34,-0.56,0.45,-0.97c0.11,-0.41,0.16,-0.94,0.16,-1.58m4.58,-3.86l0,5.02c0,0.38,0.02,0.7,0.08,0.96c0.05,0.25,0.14,0.46,0.27,0.62c0.12,0.15,0.29,0.27,0.5,0.33c0.2,0.06,0.46,0.09,0.77,0.09c0.31,0,0.59,-0.05,0.84,-0.16c0.25,-0.1,0.46,-0.26,0.64,-0.47c0.17,-0.2,0.31,-0.46,0.41,-0.76c0.09,-0.3,0.14,-0.65,0.14,-1.05l0,-4.59l1.31,0l0,6.23c0,0.16,0,0.34,0,0.52c0,0.18,0,0.35,0.01,0.51c0,0.16,0.01,0.3,0.01,0.42c0,0.11,0,0.19,0.01,0.22l-1.24,0c0,-0.02,-0.01,-0.08,-0.01,-0.19c0,-0.1,-0.01,-0.23,-0.01,-0.37c0,-0.13,-0.01,-0.28,-0.01,-0.42c0,-0.14,0,-0.26,0,-0.36l-0.02,0c-0.12,0.22,-0.26,0.43,-0.41,0.62c-0.15,0.18,-0.32,0.34,-0.52,0.47c-0.2,0.12,-0.43,0.22,-0.68,0.3c-0.25,0.07,-0.55,0.1,-0.9,0.1c-0.43,0,-0.81,-0.05,-1.13,-0.16c-0.31,-0.1,-0.57,-0.27,-0.78,-0.49c-0.2,-0.22,-0.35,-0.51,-0.45,-0.86c-0.09,-0.35,-0.14,-0.77,-0.14,-1.26l0,-5.28l1.32,0m7,-1.68l0,-1.25l1.31,0l0,1.25l-1.31,0m0,9.6l0,-7.92l1.31,0l0,7.92l-1.31,0m8.3,-1.27c-0.24,0.5,-0.56,0.87,-0.96,1.09c-0.4,0.21,-0.9,0.32,-1.49,0.32c-1,0,-1.73,-0.33,-2.2,-1.01c-0.47,-0.67,-0.7,-1.69,-0.7,-3.06c0,-2.76,0.97,-4.14,2.91,-4.14c0.6,0,1.1,0.1,1.5,0.32c0.4,0.21,0.72,0.56,0.96,1.04l0.01,0c0,-0.04,0,-0.12,0,-0.23c0,-0.1,0,-0.21,0,-0.32c0,-0.11,0,-0.22,0,-0.32c0,-0.1,0,-0.17,0,-0.21l0,-3.06l1.31,0l0,9.23c0,0.18,0,0.37,0,0.54c0,0.17,0,0.33,0.01,0.48c0,0.14,0,0.27,0.01,0.37c0,0.1,0,0.17,0.01,0.22l-1.25,0c0,-0.04,-0.01,-0.11,-0.02,-0.2c0,-0.09,-0.01,-0.19,-0.02,-0.31c0,-0.11,-0.01,-0.24,-0.01,-0.37c0,-0.12,0,-0.25,0,-0.38l-0.02,0m-3.99,-2.69c0,0.54,0.03,1.01,0.1,1.4c0.06,0.39,0.17,0.71,0.32,0.96c0.15,0.25,0.34,0.43,0.57,0.55c0.23,0.11,0.51,0.17,0.85,0.17c0.34,0,0.65,-0.05,0.91,-0.16c0.26,-0.11,0.48,-0.29,0.66,-0.54c0.17,-0.25,0.31,-0.57,0.4,-0.98c0.09,-0.4,0.13,-0.9,0.13,-1.48c0,-0.56,-0.04,-1.03,-0.13,-1.42c-0.09,-0.38,-0.22,-0.7,-0.41,-0.94c-0.18,-0.23,-0.4,-0.41,-0.66,-0.51c-0.26,-0.1,-0.56,-0.15,-0.9,-0.15c-0.32,0,-0.6,0.05,-0.83,0.16c-0.23,0.11,-0.42,0.29,-0.58,0.54c-0.15,0.24,-0.27,0.57,-0.34,0.97c-0.07,0.39,-0.11,0.87,-0.11,1.44" fill="#000000" stroke="none" fill-opacity="1"/>
</g>
</g>
<g clip-path="url(#c2)">
<g fill="none" stroke-width="0.62">
<path d="M177.42,42.7l0,0"/>
</g>
<g fill="none" stroke="#0000ff" stroke-width="1.25">
<path d="M159.7,42.7l35.43,0"/>
</g>
</g>
<g clip-path="url(#c0)">
<g fill="none" stroke-width="1">
<path d="m218.89,45.7c0,0.37,-0.07,0.7,-0.21,0.99c-0.14,0.29,-0.35,0.53,-0.62,0.73c-0.27,0.19,-0.6,0.34,-1,0.45c-0.39,0.1,-0.85,0.15,-1.36,0.15c-0.45,0,-0.87,-0.03,-1.24,-0.1c-0.36,-0.07,-0.69,-0.18,-0.97,-0.34c-0.27,-0.15,-0.51,-0.36,-0.69,-0.61c-0.18,-0.25,-0.32,-0.57,-0.41,-0.94l1.16,-0.22c0.11,0.42,0.34,0.73,0.69,0.93c0.35,0.19,0.83,0.29,1.46,0.29c0.28,0,0.54,-0.01,0.78,-0.05c0.23,-0.03,0.44,-0.1,0.61,-0.2c0.17,-0.09,0.3,-0.22,0.39,-0.38c0.09,-0.15,0.14,-0.35,0.14,-0.58c0,-0.23,-0.05,-0.43,-0.16,-0.58c-0.11,-0.15,-0.26,-0.28,-0.46,-0.38c-0.2,-0.1,-0.44,-0.19,-0.72,-0.26c-0.28,-0.07,-0.59,-0.15,-0.94,-0.25c-0.31,-0.08,-0.63,-0.17,-0.94,-0.27c-0.31,-0.1,-0.59,-0.23,-0.84,-0.4c-0.25,-0.16,-0.45,-0.37,-0.61,-0.62c-0.15,-0.24,-0.23,-0.56,-0.23,-0.93c0,-0.72,0.25,-1.27,0.77,-1.65c0.51,-0.37,1.26,-0.56,2.25,-0.56c0.87,0,1.56,0.15,2.08,0.46c0.51,0.3,0.84,0.8,0.97,1.48l-1.18,0.14c-0.04,-0.2,-0.12,-0.37,-0.24,-0.51c-0.11,-0.13,-0.25,-0.25,-0.42,-0.33c-0.16,-0.08,-0.35,-0.14,-0.56,-0.18c-0.2,-0.03,-0.42,-0.05,-0.64,-0.05c-0.59,0,-1.03,0.09,-1.31,0.27c-0.28,0.18,-0.42,0.45,-0.42,0.81c0,0.21,0.05,0.39,0.15,0.53c0.1,0.13,0.25,0.25,0.43,0.35c0.18,0.09,0.41,0.17,0.67,0.24c0.26,0.07,0.55,0.14,0.87,0.22c0.2,0.05,0.42,0.11,0.64,0.17c0.21,0.06,0.43,0.13,0.64,0.21c0.2,0.08,0.4,0.18,0.58,0.3c0.18,0.11,0.34,0.25,0.47,0.41c0.13,0.16,0.24,0.34,0.32,0.56c0.08,0.21,0.12,0.46,0.12,0.74m8.25,-1.77c0,1.38,-0.3,2.42,-0.91,3.09c-0.61,0.67,-1.49,1.01,-2.65,1.01c-0.55,0,-1.04,-0.08,-1.47,-0.24c-0.43,-0.16,-0.8,-0.42,-1.1,-0.76c-0.3,-0.34,-0.52,-0.77,-0.68,-1.28c-0.15,-0.51,-0.23,-1.12,-0.23,-1.82c0,-2.73,1.18,-4.1,3.55,-4.1c0.61,0,1.14,0.08,1.59,0.25c0.44,0.17,0.81,0.42,1.09,0.76c0.28,0.34,0.49,0.76,0.63,1.28c0.13,0.51,0.2,1.11,0.2,1.79m-1.38,0c0,-0.61,-0.04,-1.12,-0.14,-1.52c-0.09,-0.4,-0.23,-0.72,-0.41,-0.95c-0.18,-0.23,-0.4,-0.4,-0.67,-0.5c-0.26,-0.09,-0.56,-0.14,-0.89,-0.14c-0.33,0,-0.64,0.05,-0.91,0.15c-0.27,0.1,-0.5,0.27,-0.69,0.51c-0.19,0.24,-0.33,0.56,-0.43,0.96c-0.1,0.4,-0.15,0.9,-0.15,1.5c0,0.61,0.05,1.12,0.16,1.52c0.1,0.4,0.25,0.72,0.44,0.96c0.18,0.23,0.41,0.4,0.66,0.5c0.25,0.09,0.53,0.14,0.83,0.14c0.33,0,0.64,-0.04,0.91,-0.14c0.27,-0.09,0.5,-0.26,0.69,-0.5c0.19,-0.23,0.33,-0.56,0.43,-0.96c0.1,-0.4,0.15,-0.91,0.15,-1.53m2.98,3.97l0,-10.86l1.31,0l0,10.86l-1.31,0m3.29,-9.6l0,-1.25l1.31,0l0,1.25l-1.31,0m0,9.6l0,-7.92l1.31,0l0,7.92l-1.31,0m8.3,-1.27c-0.24,0.5,-0.56,0.87,-0.96,1.09c-0.4,0.21,-0.9,0.32,-1.49,0.32c-1,0,-1.73,-0.33,-2.2,-1.01c-0.47,-0.67,-0.7,-1.69,-0.7,-3.06c0,-2.76,0.97,-4.14,2.91,-4.14c0.6,0,1.1,0.1,1.5,0.32c0.4,0.21,0.72,0.56,0.96,1.04l0.01,0c0,-0.04,0,-0.12,0,-0.23c0,-0.1,0,-0.21,0,-0.32c0,-0.11,0,-0.22,0,-0.32c0,-0.1,0,-0.17,0,-0.21l0,-3.06l1.31,0l0,9.23c0,0.18,0,0.37,0,0.54c0,0.17,0,0.33,0.01,0.48c0,0.14,0,0.27,0.01,0.37c0,0.1,0,0.17,0.01,0.22l-1.25,0c0,-0.04,-0.01,-0.11,-0.02,-0.2c0,-0.09,-0.01,-0.19,-0.02,-0.31c0,-0.11,-0.01,-0.24,-0.01,-0.37c0,-0.12,0,-0.25,0,-0.38l-0.02,0m-3.99,-2.69c0,0.54,0.03,1.01,0.1,1.4c0.06,0.39,0.17,0.71,0.32,0.96c0.15,0.25,0.34,0.43,0.57,0.55c0.23,0.11,0.51,0.17,0.85,0.17c0.34,0,0.65,-0.05,0.91,-0.16c0.26,-0.11,0.48,-0.29,0.66,-0.54c0.17,-0.25,0.31,-0.57,0.4,-0.98c0.09,-0.4,0.13,-0.9,0.13,-1.48c0,-0.56,-0.04,-1.03,-0.13,-1.42c-0.09,-0.38,-0.22,-0.7,-0.41,-0.94c-0.18,-0.23,-0.4,-0.41,-0.66,-0.51c-0.26,-0.1,-0.56,-0.15,-0.9,-0.15c-0.32,0,-0.6,0.05,-0.83,0.16c-0.23,0.11,-0.42,0.29,-0.58,0.54c-0.15,0.24,-0.27,0.57,-0.34,0.97c-0.07,0.39,-0.11,0.87,-0.11,1.44" fill="#000000" stroke="none" fill-opacity="1"/>
</g>
</g>
<g clip-path="url(#c3)">
<g fill="none" stroke-width="0.62">
<path d="M177.42,59.5l0,0"/>
</g>
<g fill="none" stroke="#ff0000" stroke-width="1.25">
<path d="M159.7,59.5l35.43,0"/>
</g>
</g>
<g clip-path="url(#c0)">
<g fill="none" stroke-width="1">
<path d="m215.95,67.81c-0.45,0,-0.85,-0.04,-1.2,-0.13c-0.35,-0.09,-0.65,-0.22,-0.9,-0.39c-0.24,-0.17,-0.45,-0.37,-0.6,-0.61c-0.15,-0.23,-0.26,-0.5,-0.33,-0.79l1.32,-0.19c0.08,0.36,0.28,0.64,0.58,0.84c0.3,0.19,0.69,0.29,1.18,0.29c0.29,0,0.56,-0.04,0.81,-0.12c0.24,-0.08,0.45,-0.21,0.62,-0.39c0.17,-0.18,0.3,-0.42,0.39,-0.71c0.09,-0.29,0.13,-0.64,0.13,-1.07l0,-1.27l-0.01,0c-0.09,0.2,-0.21,0.39,-0.36,0.57c-0.14,0.18,-0.32,0.34,-0.52,0.48c-0.2,0.14,-0.44,0.25,-0.72,0.34c-0.27,0.08,-0.58,0.12,-0.93,0.12c-0.5,0,-0.93,-0.08,-1.29,-0.25c-0.35,-0.16,-0.65,-0.42,-0.87,-0.75c-0.22,-0.33,-0.39,-0.75,-0.49,-1.25c-0.1,-0.5,-0.15,-1.08,-0.15,-1.73c0,-0.63,0.05,-1.2,0.15,-1.71c0.1,-0.5,0.27,-0.93,0.51,-1.29c0.23,-0.35,0.54,-0.62,0.92,-0.81c0.37,-0.18,0.83,-0.28,1.38,-0.28c0.56,0,1.04,0.12,1.46,0.38c0.41,0.25,0.73,0.62,0.95,1.09l0.01,0c0,-0.12,0,-0.25,0.01,-0.41c0,-0.15,0.01,-0.29,0.02,-0.42c0,-0.13,0.01,-0.24,0.02,-0.34c0,-0.09,0.01,-0.15,0.02,-0.16l1.25,0c0,0.04,0,0.11,-0.01,0.22c0,0.1,-0.01,0.23,-0.01,0.37c0,0.14,0,0.3,-0.01,0.48c0,0.17,0,0.36,0,0.55l0,6.05c0,1.1,-0.27,1.94,-0.81,2.5c-0.54,0.55,-1.37,0.83,-2.5,0.83m2,-7.07c0,-0.55,-0.05,-1.02,-0.17,-1.41c-0.11,-0.39,-0.27,-0.71,-0.47,-0.96c-0.19,-0.24,-0.41,-0.43,-0.66,-0.54c-0.25,-0.11,-0.5,-0.17,-0.77,-0.17c-0.33,0,-0.62,0.05,-0.86,0.17c-0.24,0.11,-0.44,0.3,-0.6,0.55c-0.15,0.25,-0.27,0.57,-0.35,0.96c-0.07,0.39,-0.11,0.86,-0.11,1.41c0,0.57,0.03,1.05,0.11,1.43c0.07,0.38,0.19,0.7,0.34,0.94c0.15,0.23,0.35,0.4,0.59,0.51c0.23,0.1,0.52,0.15,0.85,0.15c0.26,0,0.52,-0.05,0.77,-0.16c0.25,-0.11,0.47,-0.29,0.67,-0.53c0.2,-0.24,0.36,-0.55,0.48,-0.94c0.12,-0.38,0.18,-0.85,0.18,-1.39m5.31,4.1c-0.79,0,-1.39,-0.21,-1.79,-0.63c-0.4,-0.42,-0.6,-0.99,-0.6,-1.72c0,-0.52,0.09,-0.95,0.29,-1.28c0.19,-0.33,0.45,-0.59,0.77,-0.78c0.31,-0.19,0.68,-0.32,1.09,-0.39c0.4,-0.07,0.82,-0.11,1.25,-0.12l1.77,-0.02l0,-0.43c0,-0.32,-0.03,-0.6,-0.1,-0.83c-0.06,-0.22,-0.17,-0.41,-0.31,-0.55c-0.14,-0.14,-0.31,-0.24,-0.53,-0.31c-0.21,-0.06,-0.46,-0.09,-0.75,-0.09c-0.25,0,-0.48,0.01,-0.68,0.05c-0.2,0.03,-0.38,0.1,-0.53,0.19c-0.15,0.09,-0.27,0.22,-0.36,0.38c-0.09,0.16,-0.15,0.36,-0.18,0.61l-1.37,-0.12c0.04,-0.31,0.14,-0.59,0.27,-0.86c0.13,-0.26,0.33,-0.48,0.58,-0.67c0.25,-0.19,0.56,-0.33,0.94,-0.44c0.37,-0.1,0.83,-0.15,1.37,-0.15c0.99,0,1.74,0.22,2.24,0.68c0.5,0.45,0.75,1.11,0.75,1.98l0,3.41c0,0.39,0.05,0.68,0.15,0.88c0.1,0.19,0.29,0.29,0.58,0.29c0.07,0,0.14,0,0.21,-0.01c0.07,0,0.14,-0.02,0.21,-0.03l0,0.82c-0.16,0.03,-0.33,0.06,-0.49,0.08c-0.16,0.01,-0.33,0.02,-0.52,0.02c-0.25,0,-0.46,-0.03,-0.64,-0.09c-0.17,-0.06,-0.32,-0.16,-0.43,-0.3c-0.11,-0.13,-0.19,-0.3,-0.25,-0.49c-0.05,-0.19,-0.09,-0.42,-0.11,-0.69l-0.04,0c-0.14,0.25,-0.29,0.48,-0.46,0.68c-0.16,0.2,-0.36,0.37,-0.58,0.52c-0.22,0.14,-0.48,0.25,-0.76,0.33c-0.28,0.07,-0.61,0.11,-0.98,0.11m0.3,-0.98c0.41,0,0.78,-0.07,1.1,-0.23c0.31,-0.15,0.57,-0.35,0.78,-0.58c0.2,-0.23,0.36,-0.5,0.46,-0.78c0.1,-0.28,0.15,-0.55,0.15,-0.81l0,-0.65l-1.44,0.02c-0.32,0,-0.62,0.02,-0.92,0.06c-0.29,0.04,-0.54,0.12,-0.76,0.24c-0.21,0.12,-0.39,0.29,-0.52,0.51c-0.12,0.21,-0.19,0.5,-0.19,0.86c0,0.43,0.11,0.76,0.34,0.99c0.23,0.23,0.56,0.35,0.99,0.35m11.92,-1.34c0,0.37,-0.07,0.7,-0.21,0.99c-0.14,0.29,-0.35,0.53,-0.62,0.73c-0.27,0.19,-0.6,0.34,-1,0.45c-0.39,0.1,-0.85,0.15,-1.36,0.15c-0.45,0,-0.87,-0.03,-1.24,-0.1c-0.36,-0.07,-0.69,-0.18,-0.97,-0.34c-0.27,-0.15,-0.51,-0.36,-0.69,-0.61c-0.18,-0.25,-0.32,-0.57,-0.41,-0.94l1.16,-0.22c0.11,0.42,0.34,0.73,0.69,0.93c0.35,0.19,0.83,0.29,1.46,0.29c0.28,0,0.54,-0.01,0.78,-0.05c0.23,-0.03,0.44,-0.1,0.61,-0.2c0.17,-0.09,0.3,-0.22,0.39,-0.38c0.09,-0.15,0.14,-0.35,0.14,-0.58c0,-0.23,-0.05,-0.43,-0.16,-0.58c-0.11,-0.15,-0.26,-0.28,-0.46,-0.38c-0.2,-0.1,-0.44,-0.19,-0.72,-0.26c-0.28,-0.07,-0.59,-0.15,-0.94,-0.25c-0.31,-0.08,-0.63,-0.17,-0.94,-0.27c-0.31,-0.1,-0.59,-0.23,-0.84,-0.4c-0.25,-0.16,-0.45,-0.37,-0.61,-0.62c-0.15,-0.24,-0.23,-0.56,-0.23,-0.93c0,-0.72,0.25,-1.27,0.77,-1.65c0.51,-0.37,1.26,-0.56,2.25,-0.56c0.87,0,1.56,0.15,2.08,0.46c0.51,0.3,0.84,0.8,0.97,1.48l-1.18,0.14c-0.04,-0.2,-0.12,-0.37,-0.24,-0.51c-0.11,-0.13,-0.25,-0.25,-0.42,-0.33c-0.16,-0.08,-0.35,-0.14,-0.56,-0.18c-0.2,-0.03,-0.42,-0.05,-0.64,-0.05c-0.59,0,-1.03,0.09,-1.31,0.27c-0.28,0.18,-0.42,0.45,-0.42,0.81c0,0.21,0.05,0.39,0.15,0.53c0.1,0.13,0.25,0.25,0.43,0.35c0.18,0.09,0.41,0.17,0.67,0.24c0.26,0.07,0.55,0.14,0.87,0.22c0.2,0.05,0.42,0.11,0.64,0.17c0.21,0.06,0.43,0.13,0.64,0.21c0.2,0.08,0.4,0.18,0.58,0.3c0.18,0.11,0.34,0.25,0.47,0.41c0.13,0.16,0.24,0.34,0.32,0.56c0.08,0.21,0.12,0.46,0.12,0.74" fill="#000000" stroke="none" fill-opacity="1"/>
</g>
<g fill="#808080" stroke="#808080" stroke-dasharray="1.25,0.62" stroke-width="0.31">
<g transform="matrix(1 0 0 1 40.76 148.47)">
<path d="M0,0l236.79,0"/>
</g>
</g>
</g>
<g clip-path="url(#c4)">
<g fill="none" stroke="#ff0000" stroke-width="1.25">
<polyline fill="none" points="40.1,172.06 41.17,172.06 42.23,172.06 43.29,172.06 44.35,172.06 45.41,172.06 46.47,172.06 47.53,172.06 48.59,172.06 49.65,172.06 50.72,172.06 51.78,172.06 52.84,172.06 53.9,172.06 54.96,172.06 56.02,172.06 57.08,172.06 58.14,172.06 59.2,172.06 60.27,172.06 61.33,172.06 62.39,172.06 63.45,172.06 64.51,172.06 65.57,172.06 66.63,172.06 67.69,172.06 68.75,172.06 69.82,172.06 70.88,172.06 71.94,172.06 73,172.06 74.06,172.06 75.12,172.06 76.18,172.06 77.24,172.06 78.3,172.06 79.36,172.06 80.43,172.06 81.49,172.06 82.55,172.06 83.61,172.06 84.67,172.06 85.73,172.06 86.79,172.06 87.85,172.06 88.91,172.06 89.98,172.06 91.04,172.06 92.1,172.06 93.16,172.06 94.22,172.06 95.28,172.06 96.34,172.06 97.4,172.06 98.46,172.06 99.53,172.06 100.59,172.05 101.65,172.01 102.71,171.8 103.77,171.28 104.83,170.16 105.89,168.14 106.95,165.14 108.01,161.62 109.08,157.58 110.14,153.63 111.2,149.75 112.26,146.14 113.32,143.22 114.38,140.65 115.44,138.88 116.5,137.7 117.56,136.77 118.63,136.24 119.69,135.97 120.75,136.15 121.81,136.3 122.87,136.6 123.93,137.22 124.99,137.62 126.05,138.06 127.11,138.7 128.18,139.33 129.24,139.88 130.3,140.35 131.36,140.84 132.42,141.35 133.48,141.89 134.54,142.44 135.6,142.94 136.66,143.23 137.73,143.59 138.79,143.89 139.85,144.36 140.91,144.65 141.97,144.79 143.03,145.09 144.09,145.39 145.15,145.66 146.21,145.81 147.28,146.12 148.34,146.33 149.4,146.51 150.46,146.71 151.52,146.9 152.58,147.16 153.64,147.43 154.7,147.43 155.76,147.53 156.83,147.6 157.89,147.8 158.95,147.79 160.01,147.95 161.07,147.95 162.13,147.99 163.19,148.2 164.25,148.12 165.31,148.26 166.37,148.17 167.44,148.17 168.5,148.23 169.56,148.25 170.62,148.2 171.68,148.26 172.74,148.34 173.8,148.31 174.86,148.22 175.92,148.3 176.99,148.31 178.05,148.3 179.11,148.15 180.17,148.17 181.23,148.2 182.29,148.13 183.35,148.13 184.41,148.1 185.47,148.09 186.54,148.11 187.6,148.2 188.66,148.14 189.72,148.08 190.78,148.21 191.84,148.17 192.9,148.18 193.96,148.15 195.02,148.14 196.09,148.04 197.15,148.13 198.21,148.11 199.27,148.09 200.33,148.03 201.39,148.12 202.45,148.19 203.51,148.17 204.57,148.23 205.64,148.17 206.7,148.22 207.76,148.21 208.82,148.3 209.88,148.29 210.94,148.28 212,148.29 213.06,148.21 214.12,148.29 215.19,148.28 216.25,148.26 217.31,148.35 218.37,148.36 219.43,148.3 220.49,148.38 221.55,148.37 222.61,148.37 223.67,148.37 224.74,148.32 225.8,148.3 226.86,148.34 227.92,148.3 228.98,148.24 230.04,148.31 231.1,148.3 232.16,148.27 233.22,148.34 234.29,148.3 235.35,148.27 236.41,148.31 237.47,148.41 238.53,148.33 239.59,148.29 240.65,148.32 241.71,148.4 242.77,148.31 243.84,148.37 244.9,148.35 245.96,148.36 247.02,148.28 248.08,148.35 249.14,148.31 250.2,148.4 251.26,148.34 252.32,148.33 253.38,148.24 254.45,148.31 255.51,148.35 256.57,148.29 257.63,148.31 258.69,148.34 259.75,148.45 260.81,148.42 261.87,148.4 262.93,148.4 264,148.41 265.06,148.45 266.12,148.48 267.18,148.43 268.24,148.39 269.3,148.37 270.36,148.38 271.42,148.38 272.48,148.36 273.55,148.34 274.61,148.37 275.67,148.36 276.73,148.4 277.62,148.31"/>
</g>
<g fill="none" stroke="#0000ff" stroke-width="1.25">
<polyline fill="none" points="40.1,172.06 41.17,172.06 42.23,172.06 43.29,172.06 44.35,172.06 45.41,172.06 46.47,172.06 47.53,172.06 48.59,172.06 49.65,172.06 50.72,172.06 51.78,172.06 52.84,172.06 53.9,172.06 54.96,172.06 56.02,172.06 57.08,172.06 58.14,172.06 59.2,172.06 60.27,172.06 61.33,172.06 62.39,172.06 63.45,172.06 64.51,172.06 65.57,172.06 66.63,172.06 67.69,172.06 68.75,172.06 69.82,172.06 70.88,172.06 71.94,172.06 73,172.06 74.06,172.06 75.12,172.06 76.18,172.06 77.24,172.06 78.3,172.06 79.36,172.06 80.43,172.06 81.49,172.06 82.55,172.06 83.61,172.06 84.67,172.06 85.73,172.06 86.79,172.06 87.85,172.06 88.91,172.06 89.98,172.06 91.04,172.06 92.1,172.06 93.16,172.06 94.22,172.06 95.28,172.06 96.34,172.06 97.4,172.06 98.46,172.06 99.53,172.06 100.59,172.06 101.65,172.06 102.71,172.06 103.77,172.06 104.83,172.06 105.89,172.06 106.95,172.05 108.01,171.97 109.08,171.41 110.14,168.96 111.2,161.66 112.26,145.99 113.32,120.35 114.38,88.09 115.44,56.23 116.5,32.87 117.56,23.09 118.63,28.1 119.69,44.79 120.75,67.97 121.81,92.75 122.87,115.37 123.93,133.91 124.99,147.79 126.05,157.44 127.11,163.7 128.18,167.51 129.24,169.7 130.3,170.89 131.36,171.51 132.42,171.81 133.48,171.95 134.54,171.99 135.6,171.99 136.66,171.93 137.73,171.81 138.79,171.56 139.85,171.11 140.91,170.32 141.97,169.05 143.03,167.15 144.09,164.45 145.15,160.91 146.21,156.74 147.28,152.22 148.34,147.94 149.4,144.5 150.46,142.52 151.52,142.37 152.58,144.11 153.64,147.37 154.7,151.59 155.76,156.14 156.83,160.47 157.89,164.11 158.95,166.94 160.01,168.94 161.07,170.24 162.13,170.96 163.19,171.21 164.25,170.95 165.31,170.03 166.37,168.08 167.44,164.56 168.5,158.89 169.56,150.65 170.62,139.7 171.68,126.71 172.74,113.13 173.8,100.92 174.86,92.27 175.92,88.74 176.99,91.01 178.05,98.45 179.11,109.53 180.17,122.37 181.23,135.01 182.29,146.13 183.35,154.97 184.41,161.4 185.47,165.65 186.54,168.04 187.6,168.9 188.66,168.39 189.72,166.57 190.78,163.47 191.84,159.26 192.9,154.3 193.96,149.25 195.02,144.88 196.09,142.01 197.15,141.02 198.21,142.13 199.27,145.04 200.33,149.16 201.39,153.75 202.45,158.13 203.51,161.77 204.57,164.28 205.64,165.44 206.7,165.1 207.76,163.18 208.82,159.64 209.88,154.6 210.94,148.35 212,141.49 213.06,134.9 214.12,129.47 215.19,126.14 216.25,125.49 217.31,127.63 218.37,132.17 219.43,138.32 220.49,145.13 221.55,151.7 222.61,157.3 223.67,161.53 224.74,164.2 225.8,165.39 226.86,165.32 227.92,164.29 228.98,162.71 230.04,160.98 231.1,159.52 232.16,158.66 233.22,158.58 234.29,159.25 235.35,160.44 236.41,161.71 237.47,162.57 238.53,162.4 239.59,160.63 240.65,156.8 241.71,150.68 242.77,142.4 243.84,132.65 244.9,122.5 245.96,113.45 247.02,106.99 248.08,104.16 249.14,105.58 250.2,110.9 251.26,119.06 252.32,128.74 253.38,138.52 254.45,147.22 255.51,154.18 256.57,159.14 257.63,162.25 258.69,163.87 259.75,164.48 260.81,164.56 261.87,164.45 262.93,164.39 264,164.45 265.06,164.5 266.12,164.32 267.18,163.58 268.24,161.95 269.3,159.2 270.36,155.28 271.42,150.41 272.48,145.07 273.55,139.96 274.61,135.88 275.67,133.5 276.73,133.21 277.62,134.7"/>
</g>
<g fill="none" stroke-width="1.25">
<polyline fill="none" points="40.1,172.06 41.17,172.06 42.23,172.06 43.29,172.06 44.35,172.06 45.41,172.06 46.47,172.06 47.53,172.06 48.59,172.06 49.65,172.06 50.72,172.06 51.78,172.06 52.84,172.06 53.9,172.06 54.96,172.06 56.02,172.06 57.08,172.06 58.14,172.06 59.2,172.06 60.27,172.06 61.33,172.06 62.39,172.06 63.45,172.06 64.51,172.06 65.57,172.06 66.63,172.06 67.69,172.06 68.75,172.06 69.82,172.06 70.88,172.06 71.94,172.06 73,172.06 74.06,172.06 75.12,172.06 76.18,172.06 77.24,172.06 78.3,172.06 79.36,172.06 80.43,172.06 81.49,172.06 82.55,172.06 83.61,172.06 84.67,172.06 85.73,172.06 86.79,172.06 87.85,172.06 88.91,172.06 89.98,172.06 91.04,172.06 92.1,172.06 93.16,172.06 94.22,172.06 95.28,172.06 96.34,172.06 97.4,172.06 98.46,172.06 99.53,172.06 100.59,172.06 101.65,172.06 102.71,172.06 103.77,172.06 104.83,172.05 105.89,172 106.95,171.71 108.01,170.6 109.08,167.68 110.14,161.95 111.2,153.08 112.26,141.83 113.32,129.81 114.38,118.76 115.44,109.95 116.5,104.12 117.56,101.27 118.63,100.97 119.69,102.63 120.75,105.71 121.81,109.66 122.87,113.98 123.93,118.46 124.99,122.88 126.05,127 127.11,130.79 128.18,134.28 129.24,137.4 130.3,140.21 131.36,142.71 132.42,144.91 133.48,146.86 134.54,148.59 135.6,150.13 136.66,151.44 137.73,152.57 138.79,153.58 139.85,154.43 140.91,155.19 141.97,155.86 143.03,156.45 144.09,156.96 145.15,157.35 146.21,157.67 147.28,157.93 148.34,158.14 149.4,158.28 150.46,158.37 151.52,158.41 152.58,158.39 153.64,158.31 154.7,158.2 155.76,158.01 156.83,157.79 157.89,157.51 158.95,157.17 160.01,156.78 161.07,156.33 162.13,155.84 163.19,155.27 164.25,154.67 165.31,154.03 166.37,153.35 167.44,152.62 168.5,151.86 169.56,151.09 170.62,150.29 171.68,149.51 172.74,148.75 173.8,147.99 174.86,147.26 175.92,146.57 176.99,145.95 178.05,145.37 179.11,144.83 180.17,144.33 181.23,143.89 182.29,143.5 183.35,143.16 184.41,142.84 185.47,142.54 186.54,142.3 187.6,142.11 188.66,141.97 189.72,141.89 190.78,141.87 191.84,141.93 192.9,142.09 193.96,142.33 195.02,142.64 196.09,143.02 197.15,143.46 198.21,143.95 199.27,144.49 200.33,145.03 201.39,145.6 202.45,146.21 203.51,146.8 204.57,147.41 205.64,147.97 206.7,148.51 207.76,149.02 208.82,149.53 209.88,149.99 210.94,150.41 212,150.8 213.06,151.15 214.12,151.44 215.19,151.71 216.25,151.94 217.31,152.13 218.37,152.28 219.43,152.39 220.49,152.46 221.55,152.5 222.61,152.49 223.67,152.45 224.74,152.38 225.8,152.28 226.86,152.12 227.92,151.95 228.98,151.76 230.04,151.51 231.1,151.27 232.16,150.99 233.22,150.7 234.29,150.38 235.35,150.06 236.41,149.73 237.47,149.41 238.53,149.06 239.59,148.73 240.65,148.42 241.71,148.11 242.77,147.81 243.84,147.52 244.9,147.26 245.96,147.01 247.02,146.78 248.08,146.6 249.14,146.42 250.2,146.29 251.26,146.18 252.32,146.09 253.38,146.03 254.45,146.01 255.51,146.02 256.57,146.03 257.63,146.06 258.69,146.13 259.75,146.21 260.81,146.31 261.87,146.42 262.93,146.55 264,146.7 265.06,146.84 266.12,147 267.18,147.16 268.24,147.34 269.3,147.52 270.36,147.69 271.42,147.86 272.48,148.04 273.55,148.22 274.61,148.4 275.67,148.58 276.73,148.74 277.62,148.88"/>
</g>
</g>
<g clip-path="url(#c0)">
<g fill="none" stroke-linecap="butt" stroke-width="0.62">
<path d="M39.57,172.06l0,-164.97"/>
<path d="M39.57,172.06l3.75,0M39.57,160.27l3.75,0M39.57,148.49l3.75,0M39.57,136.71l3.75,0M39.57,124.92l3.75,0M39.57,113.14l3.75,0M39.57,101.35l3.75,0M39.57,89.57l3.75,0M39.57,77.79l3.75,0M39.57,66l3.75,0M39.57,54.22l3.75,0M39.57,42.43l3.75,0M39.57,30.65l3.75,0M39.57,18.87l3.75,0M39.57,7.08l3.75,0"/>
<path d="M39.57,172.06l7.5,0M39.57,148.49l7.5,0M39.57,124.92l7.5,0M39.57,101.35l7.5,0M39.57,77.79l7.5,0M39.57,54.22l7.5,0M39.57,30.65l7.5,0M39.57,7.08l7.5,0"/>
</g>
<g fill="none" stroke-width="1">
<g transform="matrix(0 -1 1 0 16.47 103.12)">
<path d="m4.68,3.63c-0.53,0,-1,-0.05,-1.41,-0.16c-0.4,-0.1,-0.76,-0.26,-1.05,-0.46c-0.29,-0.2,-0.52,-0.44,-0.7,-0.72c-0.18,-0.27,-0.31,-0.58,-0.39,-0.93l1.54,-0.22c0.1,0.42,0.32,0.75,0.67,0.98c0.35,0.23,0.8,0.34,1.37,0.34c0.34,0,0.66,-0.04,0.94,-0.14c0.28,-0.09,0.52,-0.25,0.72,-0.46c0.19,-0.21,0.35,-0.49,0.46,-0.83c0.1,-0.34,0.16,-0.75,0.16,-1.24l0,-1.48l-0.01,0c-0.11,0.23,-0.25,0.45,-0.42,0.67c-0.16,0.21,-0.37,0.4,-0.61,0.56c-0.24,0.16,-0.52,0.29,-0.84,0.39c-0.31,0.1,-0.68,0.15,-1.09,0.15c-0.58,0,-1.08,-0.09,-1.5,-0.29c-0.41,-0.19,-0.76,-0.49,-1.02,-0.88c-0.26,-0.39,-0.45,-0.88,-0.58,-1.46c-0.12,-0.58,-0.18,-1.26,-0.18,-2.03c0,-0.74,0.06,-1.4,0.18,-1.99c0.12,-0.59,0.32,-1.09,0.59,-1.5c0.27,-0.41,0.63,-0.72,1.07,-0.94c0.44,-0.21,0.97,-0.32,1.61,-0.32c0.65,0,1.22,0.14,1.7,0.44c0.48,0.29,0.85,0.72,1.11,1.27l0.01,0c0,-0.14,0,-0.3,0.01,-0.47c0,-0.17,0.01,-0.34,0.02,-0.5c0,-0.15,0.01,-0.29,0.02,-0.4c0.01,-0.11,0.02,-0.17,0.03,-0.19l1.46,0c0,0.05,-0.01,0.13,-0.01,0.26c0,0.12,-0.01,0.26,-0.01,0.43c0,0.17,-0.01,0.36,-0.01,0.56c0,0.2,0,0.42,0,0.64l0,7.06c0,1.29,-0.31,2.26,-0.95,2.91c-0.63,0.65,-1.6,0.97,-2.91,0.97m2.34,-8.25c0,-0.64,-0.06,-1.19,-0.2,-1.65c-0.13,-0.45,-0.32,-0.83,-0.55,-1.12c-0.22,-0.29,-0.48,-0.5,-0.78,-0.64c-0.29,-0.13,-0.59,-0.2,-0.9,-0.2c-0.39,0,-0.72,0.06,-1.01,0.2c-0.28,0.13,-0.51,0.35,-0.7,0.64c-0.18,0.29,-0.32,0.66,-0.41,1.12c-0.08,0.45,-0.13,1,-0.13,1.64c0,0.66,0.04,1.22,0.13,1.67c0.08,0.45,0.22,0.81,0.4,1.09c0.18,0.27,0.41,0.47,0.69,0.59c0.27,0.11,0.61,0.17,1,0.17c0.3,0,0.6,-0.06,0.9,-0.19c0.29,-0.13,0.55,-0.33,0.79,-0.62c0.23,-0.28,0.42,-0.65,0.56,-1.1c0.14,-0.45,0.21,-0.99,0.21,-1.63m3.76,0.07c0,-0.79,0.05,-1.55,0.17,-2.27c0.11,-0.72,0.3,-1.41,0.56,-2.08c0.25,-0.66,0.58,-1.31,0.98,-1.93c0.39,-0.62,0.87,-1.23,1.42,-1.83l1.48,0c-0.53,0.59,-0.99,1.21,-1.38,1.84c-0.39,0.62,-0.71,1.27,-0.96,1.94c-0.25,0.66,-0.43,1.36,-0.56,2.08c-0.12,0.72,-0.18,1.48,-0.18,2.27c0,0.79,0.06,1.54,0.18,2.27c0.12,0.72,0.3,1.42,0.56,2.09c0.25,0.67,0.57,1.32,0.96,1.94c0.39,0.62,0.85,1.23,1.38,1.83l-1.48,0c-0.55,-0.59,-1.02,-1.21,-1.42,-1.83c-0.39,-0.62,-0.72,-1.27,-0.98,-1.93c-0.25,-0.66,-0.44,-1.35,-0.56,-2.08c-0.11,-0.72,-0.17,-1.48,-0.17,-2.27l0,-0.03m5.92,4.54l0,-7.09c0,-0.19,0,-0.39,0,-0.59c0,-0.2,0,-0.39,-0.01,-0.58c0,-0.18,-0.01,-0.36,-0.01,-0.52c0,-0.16,-0.01,-0.31,-0.01,-0.44l1.45,0c0,0.13,0.01,0.28,0.02,0.44c0,0.16,0.01,0.33,0.02,0.51c0,0.17,0.01,0.34,0.01,0.5c0,0.16,0,0.3,0,0.41l0.03,0c0.1,-0.35,0.22,-0.65,0.34,-0.91c0.12,-0.25,0.26,-0.47,0.43,-0.64c0.16,-0.16,0.36,-0.29,0.58,-0.37c0.22,-0.08,0.5,-0.12,0.82,-0.12c0.12,0,0.24,0.01,0.35,0.03c0.11,0.02,0.2,0.03,0.26,0.05l0,1.4c-0.1,-0.02,-0.22,-0.04,-0.35,-0.06c-0.13,-0.01,-0.29,-0.02,-0.46,-0.02c-0.35,0,-0.65,0.07,-0.9,0.23c-0.24,0.15,-0.45,0.37,-0.6,0.66c-0.15,0.28,-0.27,0.61,-0.34,1c-0.07,0.39,-0.11,0.81,-0.11,1.27l0,4.81l-1.53,0m9.32,-4.51c0,0.79,-0.05,1.55,-0.17,2.27c-0.11,0.72,-0.3,1.41,-0.56,2.08c-0.25,0.66,-0.58,1.31,-0.98,1.93c-0.39,0.62,-0.87,1.23,-1.42,1.83l-1.48,0c0.53,-0.59,0.99,-1.21,1.38,-1.83c0.39,-0.62,0.71,-1.27,0.96,-1.94c0.25,-0.67,0.43,-1.36,0.55,-2.09c0.12,-0.72,0.18,-1.48,0.18,-2.27c0,-0.79,-0.06,-1.55,-0.18,-2.27c-0.12,-0.72,-0.3,-1.41,-0.55,-2.08c-0.25,-0.66,-0.57,-1.31,-0.96,-1.94c-0.39,-0.62,-0.85,-1.24,-1.38,-1.84l1.48,0c0.55,0.59,1.02,1.21,1.42,1.83c0.39,0.62,0.72,1.27,0.98,1.93c0.25,0.66,0.44,1.36,0.56,2.08c0.11,0.72,0.17,1.48,0.17,2.27l0,0.03" fill="#000000" stroke="none" fill-opacity="1"/>
</g>
<path d="m35.53,172.24c0,0.99,-0.09,1.82,-0.28,2.5c-0.18,0.67,-0.44,1.22,-0.76,1.64c-0.32,0.41,-0.7,0.71,-1.14,0.89c-0.43,0.18,-0.9,0.27,-1.4,0.27c-0.5,0,-0.97,-0.09,-1.4,-0.27c-0.43,-0.18,-0.81,-0.47,-1.13,-0.89c-0.31,-0.41,-0.57,-0.96,-0.75,-1.63c-0.18,-0.67,-0.27,-1.51,-0.27,-2.5c0,-1.03,0.09,-1.9,0.27,-2.58c0.18,-0.68,0.43,-1.22,0.75,-1.62c0.32,-0.4,0.7,-0.68,1.14,-0.85c0.43,-0.16,0.91,-0.24,1.43,-0.24c0.49,0,0.95,0.08,1.38,0.24c0.43,0.16,0.8,0.44,1.13,0.85c0.32,0.4,0.57,0.94,0.76,1.62c0.18,0.68,0.27,1.54,0.27,2.58m-1.34,0c0,-0.81,-0.04,-1.5,-0.14,-2.04c-0.09,-0.54,-0.24,-0.97,-0.43,-1.3c-0.19,-0.32,-0.42,-0.55,-0.7,-0.68c-0.27,-0.13,-0.58,-0.2,-0.94,-0.2c-0.37,0,-0.69,0.06,-0.98,0.2c-0.28,0.13,-0.52,0.36,-0.71,0.69c-0.19,0.32,-0.33,0.75,-0.43,1.3c-0.09,0.54,-0.14,1.22,-0.14,2.03c0,0.79,0.05,1.45,0.15,2c0.1,0.54,0.24,0.97,0.43,1.3c0.19,0.32,0.42,0.56,0.7,0.71c0.27,0.14,0.59,0.21,0.95,0.21c0.34,0,0.65,-0.07,0.93,-0.21c0.27,-0.14,0.51,-0.38,0.7,-0.71c0.19,-0.32,0.34,-0.76,0.44,-1.3c0.1,-0.54,0.15,-1.2,0.15,-2" fill="#000000" stroke="none" fill-opacity="1"/>
<path d="m28.92,153.84l0,-1.12l2.62,0l0,-7.93l-2.32,1.66l0,-1.24l2.43,-1.67l1.21,0l0,9.2l2.51,0l0,1.12l-6.46,0" fill="#000000" stroke="none" fill-opacity="1"/>
<path d="m28.53,130.27l0,-0.92c0.24,-0.57,0.55,-1.07,0.91,-1.51c0.35,-0.43,0.73,-0.83,1.13,-1.18c0.39,-0.35,0.78,-0.68,1.17,-0.98c0.38,-0.3,0.73,-0.6,1.05,-0.9c0.31,-0.3,0.56,-0.62,0.75,-0.95c0.19,-0.33,0.28,-0.7,0.28,-1.12c0,-0.29,-0.04,-0.55,-0.13,-0.77c-0.08,-0.22,-0.21,-0.4,-0.38,-0.56c-0.16,-0.15,-0.36,-0.26,-0.59,-0.34c-0.23,-0.07,-0.48,-0.11,-0.77,-0.11c-0.26,0,-0.51,0.03,-0.74,0.1c-0.23,0.07,-0.43,0.18,-0.61,0.32c-0.18,0.14,-0.32,0.32,-0.44,0.54c-0.11,0.21,-0.18,0.47,-0.22,0.75l-1.34,-0.12c0.04,-0.37,0.14,-0.72,0.3,-1.04c0.16,-0.32,0.38,-0.61,0.66,-0.86c0.28,-0.24,0.62,-0.44,1.02,-0.58c0.39,-0.14,0.85,-0.21,1.37,-0.21c0.51,0,0.96,0.06,1.36,0.18c0.4,0.12,0.73,0.3,1.01,0.54c0.27,0.23,0.48,0.53,0.63,0.88c0.14,0.35,0.21,0.75,0.21,1.21c0,0.34,-0.06,0.67,-0.18,0.98c-0.12,0.31,-0.29,0.61,-0.49,0.89c-0.2,0.28,-0.44,0.55,-0.72,0.82c-0.27,0.26,-0.55,0.52,-0.85,0.77c-0.29,0.25,-0.59,0.5,-0.9,0.74c-0.3,0.24,-0.58,0.49,-0.85,0.74c-0.26,0.24,-0.5,0.5,-0.71,0.75c-0.21,0.25,-0.37,0.52,-0.49,0.8l5.38,0l0,1.12l-6.83,0" fill="#000000" stroke="none" fill-opacity="1"/>
<path d="m35.46,103.85c0,0.47,-0.07,0.89,-0.23,1.26c-0.15,0.37,-0.37,0.68,-0.67,0.94c-0.29,0.25,-0.66,0.45,-1.09,0.58c-0.43,0.13,-0.93,0.2,-1.49,0.2c-0.63,0,-1.17,-0.07,-1.61,-0.23c-0.43,-0.15,-0.79,-0.36,-1.08,-0.63c-0.28,-0.26,-0.49,-0.55,-0.63,-0.89c-0.14,-0.33,-0.23,-0.67,-0.27,-1.03l1.36,-0.12c0.03,0.27,0.11,0.52,0.21,0.74c0.1,0.22,0.24,0.41,0.42,0.57c0.18,0.16,0.4,0.28,0.66,0.37c0.26,0.08,0.57,0.13,0.93,0.13c0.66,0,1.18,-0.16,1.56,-0.49c0.37,-0.32,0.56,-0.81,0.56,-1.45c0,-0.38,-0.08,-0.68,-0.25,-0.91c-0.16,-0.23,-0.37,-0.41,-0.63,-0.54c-0.25,-0.12,-0.52,-0.21,-0.82,-0.25c-0.29,-0.04,-0.56,-0.06,-0.81,-0.06l-0.74,0l0,-1.14l0.71,0c0.24,0,0.5,-0.02,0.77,-0.07c0.26,-0.05,0.51,-0.14,0.73,-0.27c0.22,-0.13,0.4,-0.31,0.54,-0.54c0.14,-0.22,0.21,-0.52,0.21,-0.87c0,-0.55,-0.16,-0.98,-0.48,-1.3c-0.32,-0.31,-0.8,-0.47,-1.44,-0.47c-0.58,0,-1.05,0.14,-1.41,0.44c-0.35,0.29,-0.56,0.71,-0.62,1.26l-1.32,-0.1c0.05,-0.45,0.17,-0.84,0.37,-1.18c0.19,-0.33,0.44,-0.61,0.74,-0.83c0.3,-0.22,0.64,-0.38,1.02,-0.49c0.38,-0.1,0.79,-0.16,1.23,-0.16c0.57,0,1.07,0.07,1.48,0.21c0.41,0.14,0.75,0.33,1.01,0.58c0.26,0.24,0.45,0.53,0.58,0.86c0.12,0.33,0.18,0.68,0.18,1.06c0,0.3,-0.04,0.58,-0.12,0.85c-0.08,0.26,-0.21,0.5,-0.38,0.71c-0.17,0.2,-0.39,0.39,-0.67,0.54c-0.27,0.15,-0.59,0.26,-0.97,0.34l0,0.02c0.41,0.04,0.77,0.13,1.08,0.28c0.3,0.14,0.56,0.32,0.76,0.53c0.2,0.21,0.35,0.45,0.45,0.73c0.1,0.27,0.15,0.56,0.15,0.86" fill="#000000" stroke="none" fill-opacity="1"/>
<path d="m34.23,80.8l0,2.33l-1.24,0l0,-2.33l-4.86,0l0,-1.02l4.72,-6.95l1.38,0l0,6.94l1.45,0l0,1.04l-1.45,0m-1.24,-6.49c-0.01,0.02,-0.03,0.07,-0.07,0.14c-0.03,0.07,-0.08,0.15,-0.13,0.23c-0.04,0.08,-0.09,0.17,-0.15,0.26c-0.05,0.09,-0.09,0.16,-0.13,0.22l-2.64,3.89c-0.02,0.03,-0.06,0.09,-0.1,0.15c-0.04,0.06,-0.09,0.12,-0.14,0.19c-0.04,0.06,-0.09,0.13,-0.14,0.19c-0.04,0.06,-0.08,0.11,-0.11,0.14l3.64,0l0,-5.45" fill="#000000" stroke="none" fill-opacity="1"/>
<path d="m35.49,56.2c0,0.51,-0.07,0.99,-0.23,1.42c-0.15,0.42,-0.38,0.79,-0.69,1.11c-0.3,0.31,-0.68,0.55,-1.14,0.72c-0.45,0.17,-0.98,0.25,-1.58,0.25c-0.54,0,-1.01,-0.06,-1.41,-0.19c-0.4,-0.12,-0.74,-0.3,-1.02,-0.52c-0.27,-0.22,-0.49,-0.48,-0.66,-0.77c-0.16,-0.29,-0.27,-0.61,-0.34,-0.96l1.33,-0.15c0.05,0.19,0.12,0.38,0.22,0.56c0.09,0.18,0.23,0.34,0.39,0.49c0.16,0.14,0.37,0.25,0.62,0.34c0.24,0.08,0.54,0.12,0.89,0.12c0.34,0,0.65,-0.05,0.92,-0.15c0.27,-0.1,0.51,-0.26,0.71,-0.46c0.19,-0.2,0.35,-0.45,0.45,-0.75c0.1,-0.29,0.16,-0.63,0.16,-1.02c0,-0.31,-0.05,-0.6,-0.15,-0.87c-0.1,-0.26,-0.24,-0.49,-0.43,-0.68c-0.19,-0.19,-0.42,-0.34,-0.7,-0.45c-0.27,-0.1,-0.58,-0.16,-0.94,-0.16c-0.21,0,-0.42,0.01,-0.6,0.05c-0.18,0.03,-0.35,0.09,-0.51,0.16c-0.15,0.06,-0.3,0.14,-0.43,0.23c-0.12,0.09,-0.25,0.18,-0.36,0.28l-1.28,0l0.34,-5.55l5.86,0l0,1.12l-4.66,0l-0.19,3.27c0.23,-0.18,0.52,-0.33,0.87,-0.46c0.35,-0.12,0.76,-0.19,1.25,-0.19c0.51,0,0.97,0.07,1.38,0.23c0.41,0.15,0.75,0.37,1.04,0.66c0.28,0.28,0.51,0.62,0.66,1.02c0.15,0.39,0.23,0.83,0.23,1.3" fill="#000000" stroke="none" fill-opacity="1"/>
<path d="m35.46,32.62c0,0.51,-0.07,0.99,-0.21,1.42c-0.14,0.43,-0.35,0.8,-0.63,1.11c-0.28,0.3,-0.62,0.55,-1.04,0.72c-0.41,0.17,-0.89,0.26,-1.43,0.26c-0.6,0,-1.12,-0.11,-1.57,-0.34c-0.44,-0.22,-0.82,-0.56,-1.12,-0.99c-0.29,-0.43,-0.52,-0.96,-0.66,-1.58c-0.14,-0.62,-0.22,-1.34,-0.22,-2.14c0,-0.91,0.08,-1.72,0.25,-2.41c0.16,-0.69,0.41,-1.27,0.72,-1.73c0.31,-0.46,0.7,-0.81,1.16,-1.04c0.45,-0.23,0.97,-0.35,1.54,-0.35c0.35,0,0.68,0.03,0.98,0.1c0.3,0.07,0.58,0.19,0.83,0.35c0.25,0.16,0.47,0.38,0.66,0.64c0.19,0.26,0.34,0.59,0.45,0.98l-1.25,0.22c-0.13,-0.44,-0.35,-0.76,-0.65,-0.96c-0.3,-0.19,-0.64,-0.29,-1.04,-0.29c-0.36,0,-0.68,0.08,-0.98,0.25c-0.29,0.17,-0.54,0.42,-0.74,0.76c-0.2,0.33,-0.36,0.76,-0.47,1.27c-0.1,0.51,-0.16,1.11,-0.16,1.79c0.23,-0.44,0.57,-0.78,1.01,-1.01c0.43,-0.23,0.93,-0.34,1.49,-0.34c0.46,0,0.89,0.07,1.27,0.22c0.38,0.15,0.7,0.36,0.97,0.65c0.27,0.28,0.48,0.63,0.62,1.04c0.14,0.4,0.22,0.86,0.22,1.37m-1.34,0.05c0,-0.35,-0.04,-0.67,-0.13,-0.96c-0.08,-0.28,-0.21,-0.53,-0.39,-0.73c-0.17,-0.2,-0.39,-0.35,-0.65,-0.46c-0.25,-0.1,-0.55,-0.16,-0.9,-0.16c-0.23,0,-0.48,0.03,-0.72,0.1c-0.24,0.07,-0.46,0.18,-0.66,0.34c-0.19,0.15,-0.35,0.36,-0.48,0.62c-0.12,0.25,-0.18,0.57,-0.18,0.94c0,0.38,0.04,0.73,0.14,1.06c0.09,0.32,0.23,0.61,0.42,0.86c0.18,0.24,0.4,0.43,0.66,0.57c0.25,0.14,0.54,0.21,0.87,0.21c0.31,0,0.6,-0.05,0.85,-0.16c0.25,-0.1,0.46,-0.26,0.64,-0.47c0.17,-0.2,0.3,-0.45,0.4,-0.75c0.09,-0.29,0.13,-0.63,0.13,-1" fill="#000000" stroke="none" fill-opacity="1"/>
<path d="m35.36,4.8c-0.51,0.79,-0.99,1.55,-1.42,2.28c-0.43,0.73,-0.8,1.46,-1.12,2.2c-0.31,0.73,-0.55,1.49,-0.72,2.27c-0.17,0.77,-0.26,1.6,-0.26,2.48l-1.37,0c0,-0.82,0.09,-1.63,0.29,-2.42c0.19,-0.79,0.45,-1.57,0.79,-2.33c0.33,-0.76,0.71,-1.51,1.15,-2.25c0.43,-0.73,0.9,-1.46,1.4,-2.18l-5.54,0l0,-1.12l6.81,0l0,1.07" fill="#000000" stroke="none" fill-opacity="1"/>
</g>
<g fill="none" stroke-linecap="butt" stroke-width="0.62">
<path d="M39.57,172.06l236.79,0"/>
<path d="M39.57,172.06l0,-3.75M59.31,172.06l0,-3.75M79.04,172.06l0,-3.75M98.77,172.06l0,-3.75M118.51,172.06l0,-3.75M138.24,172.06l0,-3.75M157.97,172.06l0,-3.75M177.71,172.06l0,-3.75M197.44,172.06l0,-3.75M217.17,172.06l0,-3.75M236.91,172.06l0,-3.75M256.64,172.06l0,-3.75M276.37,172.06l0,-3.75"/>
<path d="M39.57,172.06l0,-7.5M79.04,172.06l0,-7.5M118.51,172.06l0,-7.5M157.97,172.06l0,-7.5M197.44,172.06l0,-7.5M236.91,172.06l0,-7.5M276.37,172.06l0,-7.5"/>
</g>
<g fill="none" stroke-width="1">
<path d="m143.54,208.99l0,-7.09c0,-0.19,0,-0.39,0,-0.59c0,-0.2,0,-0.39,-0.01,-0.58c0,-0.18,-0.01,-0.36,-0.01,-0.52c0,-0.16,-0.01,-0.31,-0.01,-0.44l1.45,0c0,0.13,0.01,0.28,0.02,0.44c0,0.16,0.01,0.33,0.02,0.51c0,0.17,0.01,0.34,0.01,0.5c0,0.16,0,0.3,0,0.41l0.03,0c0.1,-0.35,0.22,-0.65,0.34,-0.91c0.12,-0.25,0.26,-0.47,0.43,-0.64c0.16,-0.16,0.36,-0.29,0.58,-0.37c0.22,-0.08,0.5,-0.12,0.82,-0.12c0.12,0,0.24,0.01,0.35,0.03c0.11,0.02,0.2,0.03,0.26,0.05l0,1.4c-0.1,-0.02,-0.22,-0.04,-0.35,-0.06c-0.13,-0.01,-0.29,-0.02,-0.46,-0.02c-0.35,0,-0.65,0.07,-0.9,0.23c-0.24,0.15,-0.45,0.37,-0.6,0.66c-0.15,0.28,-0.27,0.61,-0.34,1c-0.07,0.39,-0.11,0.81,-0.11,1.27l0,4.81l-1.53,0m9.48,0.17l3.51,-12.85l1.35,0l-3.47,12.85l-1.38,0" fill="#000000" stroke="none" fill-opacity="1"/>
<path d="m171.98,204.8c0,0.63,-0.08,1.22,-0.26,1.75c-0.17,0.53,-0.43,0.99,-0.78,1.38c-0.35,0.38,-0.78,0.68,-1.3,0.9c-0.52,0.21,-1.13,0.32,-1.83,0.32c-0.7,0,-1.31,-0.1,-1.84,-0.31c-0.52,-0.21,-0.97,-0.51,-1.32,-0.9c-0.35,-0.39,-0.61,-0.88,-0.79,-1.45c-0.17,-0.57,-0.26,-1.23,-0.26,-1.96c0,-0.81,0.12,-1.52,0.36,-2.12c0.24,-0.59,0.58,-1.09,1.02,-1.48c0.43,-0.39,0.95,-0.68,1.56,-0.87c0.6,-0.18,1.26,-0.28,1.98,-0.28l4.86,0l0,1.11l-1.4,0c-0.05,0,-0.12,0,-0.22,0c-0.09,0,-0.21,0,-0.33,-0.01c-0.12,0,-0.24,-0.01,-0.37,-0.01c-0.12,0,-0.23,-0.01,-0.33,-0.01l0,0.03c0.15,0.23,0.31,0.5,0.47,0.78c0.15,0.28,0.29,0.58,0.41,0.91c0.12,0.32,0.22,0.67,0.29,1.05c0.07,0.37,0.11,0.77,0.11,1.2m-1.61,0.02c0,-0.42,-0.02,-0.81,-0.08,-1.19c-0.05,-0.37,-0.13,-0.72,-0.23,-1.06c-0.09,-0.33,-0.2,-0.63,-0.33,-0.91c-0.12,-0.28,-0.26,-0.54,-0.4,-0.78l-0.76,0c-0.47,0,-0.91,0.07,-1.32,0.21c-0.4,0.14,-0.76,0.36,-1.06,0.66c-0.3,0.29,-0.54,0.67,-0.71,1.13c-0.17,0.45,-0.26,0.99,-0.26,1.62c0,1.17,0.21,2.06,0.64,2.64c0.43,0.58,1.06,0.88,1.9,0.88c0.44,0,0.83,-0.07,1.16,-0.22c0.33,-0.14,0.6,-0.36,0.82,-0.63c0.21,-0.27,0.37,-0.61,0.48,-1c0.1,-0.39,0.16,-0.84,0.16,-1.33" fill="#000000" stroke="none" fill-opacity="1"/>
<path d="m43.18,183.99c0,0.99,-0.09,1.82,-0.28,2.5c-0.18,0.67,-0.44,1.22,-0.76,1.64c-0.32,0.41,-0.7,0.71,-1.14,0.89c-0.43,0.18,-0.9,0.27,-1.4,0.27c-0.5,0,-0.97,-0.09,-1.4,-0.27c-0.43,-0.18,-0.81,-0.47,-1.13,-0.89c-0.31,-0.41,-0.57,-0.96,-0.75,-1.63c-0.18,-0.67,-0.27,-1.51,-0.27,-2.5c0,-1.03,0.09,-1.9,0.27,-2.58c0.18,-0.68,0.43,-1.22,0.75,-1.62c0.32,-0.4,0.7,-0.68,1.14,-0.85c0.43,-0.16,0.91,-0.24,1.43,-0.24c0.49,0,0.95,0.08,1.38,0.24c0.43,0.16,0.8,0.44,1.13,0.85c0.32,0.4,0.57,0.94,0.76,1.62c0.18,0.68,0.27,1.54,0.27,2.58m-1.34,0c0,-0.81,-0.04,-1.5,-0.14,-2.04c-0.09,-0.54,-0.24,-0.97,-0.43,-1.3c-0.19,-0.32,-0.42,-0.55,-0.7,-0.68c-0.27,-0.13,-0.58,-0.2,-0.94,-0.2c-0.37,0,-0.69,0.06,-0.98,0.2c-0.28,0.13,-0.52,0.36,-0.71,0.69c-0.19,0.32,-0.33,0.75,-0.43,1.3c-0.09,0.54,-0.14,1.22,-0.14,2.03c0,0.79,0.05,1.45,0.15,2c0.1,0.54,0.24,0.97,0.43,1.3c0.19,0.32,0.42,0.56,0.7,0.71c0.27,0.14,0.59,0.21,0.95,0.21c0.34,0,0.65,-0.07,0.93,-0.21c0.27,-0.14,0.51,-0.38,0.7,-0.71c0.19,-0.32,0.34,-0.76,0.44,-1.3c0.1,-0.54,0.15,-1.2,0.15,-2" fill="#000000" stroke="none" fill-opacity="1"/>
<path d="m76.4,183.99c0,0.99,-0.09,1.82,-0.28,2.5c-0.18,0.67,-0.44,1.22,-0.76,1.64c-0.32,0.41,-0.7,0.71,-1.14,0.89c-0.43,0.18,-0.9,0.27,-1.4,0.27c-0.5,0,-0.97,-0.09,-1.4,-0.27c-0.43,-0.18,-0.81,-0.47,-1.13,-0.89c-0.31,-0.41,-0.57,-0.96,-0.75,-1.63c-0.18,-0.67,-0.27,-1.51,-0.27,-2.5c0,-1.03,0.09,-1.9,0.27,-2.58c0.18,-0.68,0.43,-1.22,0.75,-1.62c0.32,-0.4,0.7,-0.68,1.14,-0.85c0.43,-0.16,0.91,-0.24,1.43,-0.24c0.49,0,0.95,0.08,1.38,0.24c0.43,0.16,0.8,0.44,1.13,0.85c0.32,0.4,0.57,0.94,0.76,1.62c0.18,0.68,0.27,1.54,0.27,2.58m-1.34,0c0,-0.81,-0.04,-1.5,-0.14,-2.04c-0.09,-0.54,-0.24,-0.97,-0.43,-1.3c-0.19,-0.32,-0.42,-0.55,-0.7,-0.68c-0.27,-0.13,-0.58,-0.2,-0.94,-0.2c-0.37,0,-0.69,0.06,-0.98,0.2c-0.28,0.13,-0.52,0.36,-0.71,0.69c-0.19,0.32,-0.33,0.75,-0.43,1.3c-0.09,0.54,-0.14,1.22,-0.14,2.03c0,0.79,0.05,1.45,0.15,2c0.1,0.54,0.24,0.97,0.43,1.3c0.19,0.32,0.42,0.56,0.7,0.71c0.27,0.14,0.59,0.21,0.95,0.21c0.34,0,0.65,-0.07,0.93,-0.21c0.27,-0.14,0.51,-0.38,0.7,-0.71c0.19,-0.32,0.34,-0.76,0.44,-1.3c0.1,-0.54,0.15,-1.2,0.15,-2m3.25,5.16l0,-1.6l1.42,0l0,1.6l-1.42,0m10.54,-3.36c0,0.51,-0.07,0.99,-0.23,1.42c-0.15,0.42,-0.38,0.79,-0.69,1.11c-0.3,0.31,-0.68,0.55,-1.14,0.72c-0.45,0.17,-0.98,0.25,-1.58,0.25c-0.54,0,-1.01,-0.06,-1.41,-0.19c-0.4,-0.12,-0.74,-0.3,-1.02,-0.52c-0.27,-0.22,-0.49,-0.48,-0.66,-0.77c-0.16,-0.29,-0.27,-0.61,-0.34,-0.96l1.33,-0.15c0.05,0.19,0.12,0.38,0.22,0.56c0.09,0.18,0.23,0.34,0.39,0.49c0.16,0.14,0.37,0.25,0.62,0.34c0.24,0.08,0.54,0.12,0.89,0.12c0.34,0,0.65,-0.05,0.92,-0.15c0.27,-0.1,0.51,-0.26,0.71,-0.46c0.19,-0.2,0.35,-0.45,0.45,-0.75c0.1,-0.29,0.16,-0.63,0.16,-1.02c0,-0.31,-0.05,-0.6,-0.15,-0.87c-0.1,-0.26,-0.24,-0.49,-0.43,-0.68c-0.19,-0.19,-0.42,-0.34,-0.7,-0.45c-0.27,-0.1,-0.58,-0.16,-0.94,-0.16c-0.21,0,-0.42,0.01,-0.6,0.05c-0.18,0.03,-0.35,0.09,-0.51,0.16c-0.15,0.06,-0.3,0.14,-0.43,0.23c-0.12,0.09,-0.25,0.18,-0.36,0.28l-1.28,0l0.34,-5.55l5.86,0l0,1.12l-4.66,0l-0.19,3.27c0.23,-0.18,0.52,-0.33,0.87,-0.46c0.35,-0.12,0.76,-0.19,1.25,-0.19c0.51,0,0.97,0.07,1.38,0.23c0.41,0.15,0.75,0.37,1.04,0.66c0.28,0.28,0.51,0.62,0.66,1.02c0.15,0.39,0.23,0.83,0.23,1.3" fill="#000000" stroke="none" fill-opacity="1"/>
<path d="m115.5,189.16l0,-1.12l2.62,0l0,-7.93l-2.32,1.66l0,-1.24l2.43,-1.67l1.21,0l0,9.2l2.51,0l0,1.12l-6.46,0" fill="#000000" stroke="none" fill-opacity="1"/>
<path d="m148.72,189.16l0,-1.12l2.62,0l0,-7.93l-2.32,1.66l0,-1.24l2.43,-1.67l1.21,0l0,9.2l2.51,0l0,1.12l-6.46,0m8.52,0l0,-1.6l1.42,0l0,1.6l-1.42,0m10.54,-3.36c0,0.51,-0.07,0.99,-0.23,1.42c-0.15,0.42,-0.38,0.79,-0.69,1.11c-0.3,0.31,-0.68,0.55,-1.14,0.72c-0.45,0.17,-0.98,0.25,-1.58,0.25c-0.54,0,-1.01,-0.06,-1.41,-0.19c-0.4,-0.12,-0.74,-0.3,-1.02,-0.52c-0.27,-0.22,-0.49,-0.48,-0.66,-0.77c-0.16,-0.29,-0.27,-0.61,-0.34,-0.96l1.33,-0.15c0.05,0.19,0.12,0.38,0.22,0.56c0.09,0.18,0.23,0.34,0.39,0.49c0.16,0.14,0.37,0.25,0.62,0.34c0.24,0.08,0.54,0.12,0.89,0.12c0.34,0,0.65,-0.05,0.92,-0.15c0.27,-0.1,0.51,-0.26,0.71,-0.46c0.19,-0.2,0.35,-0.45,0.45,-0.75c0.1,-0.29,0.16,-0.63,0.16,-1.02c0,-0.31,-0.05,-0.6,-0.15,-0.87c-0.1,-0.26,-0.24,-0.49,-0.43,-0.68c-0.19,-0.19,-0.42,-0.34,-0.7,-0.45c-0.27,-0.1,-0.58,-0.16,-0.94,-0.16c-0.21,0,-0.42,0.01,-0.6,0.05c-0.18,0.03,-0.35,0.09,-0.51,0.16c-0.15,0.06,-0.3,0.14,-0.43,0.23c-0.12,0.09,-0.25,0.18,-0.36,0.28l-1.28,0l0.34,-5.55l5.86,0l0,1.12l-4.66,0l-0.19,3.27c0.23,-0.18,0.52,-0.33,0.87,-0.46c0.35,-0.12,0.76,-0.19,1.25,-0.19c0.51,0,0.97,0.07,1.38,0.23c0.41,0.15,0.75,0.37,1.04,0.66c0.28,0.28,0.51,0.62,0.66,1.02c0.15,0.39,0.23,0.83,0.23,1.3" fill="#000000" stroke="none" fill-opacity="1"/>
<path d="m194.04,189.16l0,-0.92c0.24,-0.57,0.55,-1.07,0.91,-1.51c0.35,-0.43,0.73,-0.83,1.13,-1.18c0.39,-0.35,0.78,-0.68,1.17,-0.98c0.38,-0.3,0.73,-0.6,1.05,-0.9c0.31,-0.3,0.56,-0.62,0.75,-0.95c0.19,-0.33,0.28,-0.7,0.28,-1.12c0,-0.29,-0.04,-0.55,-0.13,-0.77c-0.08,-0.22,-0.21,-0.4,-0.38,-0.56c-0.16,-0.15,-0.36,-0.26,-0.59,-0.34c-0.23,-0.07,-0.48,-0.11,-0.77,-0.11c-0.26,0,-0.51,0.03,-0.74,0.1c-0.23,0.07,-0.43,0.18,-0.61,0.32c-0.18,0.14,-0.32,0.32,-0.44,0.54c-0.11,0.21,-0.18,0.47,-0.22,0.75l-1.34,-0.12c0.04,-0.37,0.14,-0.72,0.3,-1.04c0.16,-0.32,0.38,-0.61,0.66,-0.86c0.28,-0.24,0.62,-0.44,1.02,-0.58c0.39,-0.14,0.85,-0.21,1.37,-0.21c0.51,0,0.96,0.06,1.36,0.18c0.4,0.12,0.73,0.3,1.01,0.54c0.27,0.23,0.48,0.53,0.63,0.88c0.14,0.35,0.21,0.75,0.21,1.21c0,0.34,-0.06,0.67,-0.18,0.98c-0.12,0.31,-0.29,0.61,-0.49,0.89c-0.2,0.28,-0.44,0.55,-0.72,0.82c-0.27,0.26,-0.55,0.52,-0.85,0.77c-0.29,0.25,-0.59,0.5,-0.9,0.74c-0.3,0.24,-0.58,0.49,-0.85,0.74c-0.26,0.24,-0.5,0.5,-0.71,0.75c-0.21,0.25,-0.37,0.52,-0.49,0.8l5.38,0l0,1.12l-6.83,0" fill="#000000" stroke="none" fill-opacity="1"/>
<path d="m227.26,189.16l0,-0.92c0.24,-0.57,0.55,-1.07,0.91,-1.51c0.35,-0.43,0.73,-0.83,1.13,-1.18c0.39,-0.35,0.78,-0.68,1.17,-0.98c0.38,-0.3,0.73,-0.6,1.05,-0.9c0.31,-0.3,0.56,-0.62,0.75,-0.95c0.19,-0.33,0.28,-0.7,0.28,-1.12c0,-0.29,-0.04,-0.55,-0.13,-0.77c-0.08,-0.22,-0.21,-0.4,-0.38,-0.56c-0.16,-0.15,-0.36,-0.26,-0.59,-0.34c-0.23,-0.07,-0.48,-0.11,-0.77,-0.11c-0.26,0,-0.51,0.03,-0.74,0.1c-0.23,0.07,-0.43,0.18,-0.61,0.32c-0.18,0.14,-0.32,0.32,-0.44,0.54c-0.11,0.21,-0.18,0.47,-0.22,0.75l-1.34,-0.12c0.04,-0.37,0.14,-0.72,0.3,-1.04c0.16,-0.32,0.38,-0.61,0.66,-0.86c0.28,-0.24,0.62,-0.44,1.02,-0.58c0.39,-0.14,0.85,-0.21,1.37,-0.21c0.51,0,0.96,0.06,1.36,0.18c0.4,0.12,0.73,0.3,1.01,0.54c0.27,0.23,0.48,0.53,0.63,0.88c0.14,0.35,0.21,0.75,0.21,1.21c0,0.34,-0.06,0.67,-0.18,0.98c-0.12,0.31,-0.29,0.61,-0.49,0.89c-0.2,0.28,-0.44,0.55,-0.72,0.82c-0.27,0.26,-0.55,0.52,-0.85,0.77c-0.29,0.25,-0.59,0.5,-0.9,0.74c-0.3,0.24,-0.58,0.49,-0.85,0.74c-0.26,0.24,-0.5,0.5,-0.71,0.75c-0.21,0.25,-0.37,0.52,-0.49,0.8l5.38,0l0,1.12l-6.83,0m8.91,0l0,-1.6l1.42,0l0,1.6l-1.42,0m10.54,-3.36c0,0.51,-0.07,0.99,-0.23,1.42c-0.15,0.42,-0.38,0.79,-0.69,1.11c-0.3,0.31,-0.68,0.55,-1.14,0.72c-0.45,0.17,-0.98,0.25,-1.58,0.25c-0.54,0,-1.01,-0.06,-1.41,-0.19c-0.4,-0.12,-0.74,-0.3,-1.02,-0.52c-0.27,-0.22,-0.49,-0.48,-0.66,-0.77c-0.16,-0.29,-0.27,-0.61,-0.34,-0.96l1.33,-0.15c0.05,0.19,0.12,0.38,0.22,0.56c0.09,0.18,0.23,0.34,0.39,0.49c0.16,0.14,0.37,0.25,0.62,0.34c0.24,0.08,0.54,0.12,0.89,0.12c0.34,0,0.65,-0.05,0.92,-0.15c0.27,-0.1,0.51,-0.26,0.71,-0.46c0.19,-0.2,0.35,-0.45,0.45,-0.75c0.1,-0.29,0.16,-0.63,0.16,-1.02c0,-0.31,-0.05,-0.6,-0.15,-0.87c-0.1,-0.26,-0.24,-0.49,-0.43,-0.68c-0.19,-0.19,-0.42,-0.34,-0.7,-0.45c-0.27,-0.1,-0.58,-0.16,-0.94,-0.16c-0.21,0,-0.42,0.01,-0.6,0.05c-0.18,0.03,-0.35,0.09,-0.51,0.16c-0.15,0.06,-0.3,0.14,-0.43,0.23c-0.12,0.09,-0.25,0.18,-0.36,0.28l-1.28,0l0.34,-5.55l5.86,0l0,1.12l-4.66,0l-0.19,3.27c0.23,-0.18,0.52,-0.33,0.87,-0.46c0.35,-0.12,0.76,-0.19,1.25,-0.19c0.51,0,0.97,0.07,1.38,0.23c0.41,0.15,0.75,0.37,1.04,0.66c0.28,0.28,0.51,0.62,0.66,1.02c0.15,0.39,0.23,0.83,0.23,1.3" fill="#000000" stroke="none" fill-opacity="1"/>
<path d="m279.9,186.31c0,0.47,-0.07,0.89,-0.23,1.26c-0.15,0.37,-0.37,0.68,-0.67,0.94c-0.29,0.25,-0.66,0.45,-1.09,0.58c-0.43,0.13,-0.93,0.2,-1.49,0.2c-0.63,0,-1.17,-0.07,-1.61,-0.23c-0.43,-0.15,-0.79,-0.36,-1.08,-0.63c-0.28,-0.26,-0.49,-0.55,-0.63,-0.89c-0.14,-0.33,-0.23,-0.67,-0.27,-1.03l1.36,-0.12c0.03,0.27,0.11,0.52,0.21,0.74c0.1,0.22,0.24,0.41,0.42,0.57c0.18,0.16,0.4,0.28,0.66,0.37c0.26,0.08,0.57,0.13,0.93,0.13c0.66,0,1.18,-0.16,1.56,-0.49c0.37,-0.32,0.56,-0.81,0.56,-1.45c0,-0.38,-0.08,-0.68,-0.25,-0.91c-0.16,-0.23,-0.37,-0.41,-0.63,-0.54c-0.25,-0.12,-0.52,-0.21,-0.82,-0.25c-0.29,-0.04,-0.56,-0.06,-0.81,-0.06l-0.74,0l0,-1.14l0.71,0c0.24,0,0.5,-0.02,0.77,-0.07c0.26,-0.05,0.51,-0.14,0.73,-0.27c0.22,-0.13,0.4,-0.31,0.54,-0.54c0.14,-0.22,0.21,-0.52,0.21,-0.87c0,-0.55,-0.16,-0.98,-0.48,-1.3c-0.32,-0.31,-0.8,-0.47,-1.44,-0.47c-0.58,0,-1.05,0.14,-1.41,0.44c-0.35,0.29,-0.56,0.71,-0.62,1.26l-1.32,-0.1c0.05,-0.45,0.17,-0.84,0.37,-1.18c0.19,-0.33,0.44,-0.61,0.74,-0.83c0.3,-0.22,0.64,-0.38,1.02,-0.49c0.38,-0.1,0.79,-0.16,1.23,-0.16c0.57,0,1.07,0.07,1.48,0.21c0.41,0.14,0.75,0.33,1.01,0.58c0.26,0.24,0.45,0.53,0.58,0.86c0.12,0.33,0.18,0.68,0.18,1.06c0,0.3,-0.04,0.58,-0.12,0.85c-0.08,0.26,-0.21,0.5,-0.38,0.71c-0.17,0.2,-0.39,0.39,-0.67,0.54c-0.27,0.15,-0.59,0.26,-0.97,0.34l0,0.02c0.41,0.04,0.77,0.13,1.08,0.28c0.3,0.14,0.56,0.32,0.76,0.53c0.2,0.21,0.35,0.45,0.45,0.73c0.1,0.27,0.15,0.56,0.15,0.86" fill="#000000" stroke="none" fill-opacity="1"/>
</g>
<g fill="none" stroke-linecap="butt" stroke-width="0.62">
<path d="M276.37,172.06l0,-164.97"/>
<path d="M276.37,172.06l-3.75,0M276.37,160.27l-3.75,0M276.37,148.49l-3.75,0M276.37,136.71l-3.75,0M276.37,124.92l-3.75,0M276.37,113.14l-3.75,0M276.37,101.35l-3.75,0M276.37,89.57l-3.75,0M276.37,77.79l-3.75,0M276.37,66l-3.75,0M276.37,54.22l-3.75,0M276.37,42.43l-3.75,0M276.37,30.65l-3.75,0M276.37,18.87l-3.75,0M276.37,7.08l-3.75,0"/>
<path d="M276.37,172.06l-7.5,0M276.37,148.49l-7.5,0M276.37,124.92l-7.5,0M276.37,101.35l-7.5,0M276.37,77.79l-7.5,0M276.37,54.22l-7.5,0M276.37,30.65l-7.5,0M276.37,7.08l-7.5,0"/>
<path d="M39.57,7.08l236.79,0"/>
<path d="M39.57,7.08l0,3.75M59.31,7.08l0,3.75M79.04,7.08l0,3.75M98.77,7.08l0,3.75M118.51,7.08l0,3.75M138.24,7.08l0,3.75M157.97,7.08l0,3.75M177.71,7.08l0,3.75M197.44,7.08l0,3.75M217.17,7.08l0,3.75M236.91,7.08l0,3.75M256.64,7.08l0,3.75M276.37,7.08l0,3.75"/>
<path d="M39.57,7.08l0,7.5M79.04,7.08l0,7.5M118.51,7.08l0,7.5M157.97,7.08l0,7.5M197.44,7.08l0,7.5M236.91,7.08l0,7.5M276.37,7.08l0,7.5"/>
</g>
</g>
</g>
</svg>
